<?xml version="1.0" encoding="utf-8"?>
<!-- Generator: Adobe Illustrator 24.1.1, SVG Export Plug-In . SVG Version: 6.00 Build 0)  -->
<svg version="1.1" id="Capa_1" xmlns="http://www.w3.org/2000/svg" xmlns:xlink="http://www.w3.org/1999/xlink" x="0px" y="0px"
	 viewBox="0 0 94 28" style="enable-background:new 0 0 94 28;" xml:space="preserve">
<g>
	<path d="M10.9,10V5.4h2.6v6H4.4C1.1,11.3,0,10,0,5.9s1.1-5.4,4.4-5.4h8.3v1.4H4.9c-1.7,0-2.3,0.7-2.3,2.8v2.5c0,2,0.6,2.8,2.3,2.8
		L10.9,10z"/>
	<path d="M28.6,0.5v1.2h-10v3.2h9.5v1.4h-9.5V10h10v1.4H16.2V0.5H28.6z"/>
	<path d="M42.5,8.6V0.5h1.4v10.9H42l-9.5-8.1v8.1h-1.4V0.5H33L42.5,8.6z"/>
	<path d="M59.4,0.5v1.2h-10v3.2h9.5v1.4h-9.5V10h10v1.4H47V0.5H59.4z"/>
	<path d="M61.4,11.2V10h8.8c0.8,0,1.1-0.2,1.1-0.8c0-0.5-0.2-0.8-1.8-1.4c-7.7-2.7-8.3-3-8.3-4.7s1-2.6,3.3-2.6h8.5v1.2h-8.2
		c-0.8,0-1.1,0.2-1.1,0.8c0,0.5,0.2,0.7,1.8,1.4c7.7,2.7,8.3,3,8.3,4.8s-1,2.6-3.3,2.6L61.4,11.2z"/>
	<path d="M78.7,11.4h-2.6V0.5h2.6V11.4z"/>
	<path d="M81.3,11.2V10h8.8c0.8,0,1.1-0.2,1.1-0.8c0-0.5-0.2-0.8-1.8-1.4c-7.7-2.7-8.3-3-8.3-4.7s1-2.6,3.3-2.6h8.5v1.2h-8.2
		c-0.8,0-1.1,0.2-1.1,0.8c0,0.5,0.2,0.7,1.8,1.4c7.7,2.7,8.3,3,8.3,4.8s-1,2.6-3.3,2.6L81.3,11.2z"/>
	<path d="M8.9,23.7l4-6.7h4.3v10.3H13v-7.2l-4.5,7.2H6.4L2,20.1v7.2H0.1V17h4.8L8.9,23.7z"/>
	<path d="M23.7,27.5c-3.4,0-4.4-1.2-4.4-5.3s1-5.3,4.4-5.3h5.7c3.4,0,4.4,1.2,4.4,5.3s-1,5.3-4.4,5.3H23.7z M28.3,25.6
		c1,0,1.3-0.4,1.3-1.4v-4c0-1-0.4-1.4-1.3-1.4h-3.8c-1,0-1.3,0.4-1.3,1.4v4c0,1,0.4,1.4,1.3,1.4H28.3z"/>
	<path d="M34.9,17h13v1.9h-4.4v8.4h-4.2v-8.4h-4.4L34.9,17z"/>
	<path d="M53.4,27.5c-3.4,0-4.4-1.2-4.4-5.3s1-5.3,4.4-5.3h5.7c3.4,0,4.4,1.2,4.4,5.3s-1,5.3-4.4,5.3H53.4z M58.1,25.6
		c1,0,1.3-0.4,1.3-1.4v-4c0-1-0.4-1.4-1.3-1.4h-3.8c-1,0-1.3,0.4-1.3,1.4v4c0,1,0.4,1.4,1.3,1.4H58.1z"/>
	<path d="M80.5,27.3h-5.3l-3.1-4h-2.3v4h-4.2V17h11.2c1.9,0,2.8,0.9,2.8,3.2c0,2.1-0.7,3-2.3,3.1L80.5,27.3z M69.6,18.9v2.6h4.5
		c0.7,0,0.9-0.2,0.9-1v-0.7c0-0.7-0.2-1-0.9-1L69.6,18.9z"/>
	<path d="M81.2,27.3v-1.9h8.2c0.4,0,0.5-0.1,0.5-0.4c0-0.3-0.2-0.4-0.7-0.5c-7.3-2-8.3-2.4-8.3-4.4c0-2.2,1.2-3.1,4-3.1h8.1v1.9
		h-7.5c-0.4,0-0.5,0.1-0.5,0.3c0,0.2,0.2,0.4,0.7,0.5c7.3,2,8.3,2.4,8.3,4.5c0,2.2-1.2,3.1-4,3.1H81.2z"/>
</g>
</svg>
