<svg id="Capa_1" data-name="Capa 1" xmlns="http://www.w3.org/2000/svg" viewBox="0 0 1000 1000"><defs><style>.cls-1{fill:#f4f4f4;}</style></defs><path class="cls-1" d="M294.23,477.24v-26h14.51v33.68H256.69c-19,0-25-7.39-25-30.78s6-30.77,25-30.77H304v7.56H259.5c-9.76,0-13.28,4.31-13.28,16v14.33c0,11.78,3.52,16,13.28,16Z"/><path class="cls-1" d="M395.08,423.34v7.56H338.46V449h54v7.56h-54v20.66h56.62v7.65H324V423.34Z"/><path class="cls-1" d="M474.47,469.33v-46h7.91v61.55H471.66l-54.51-46v46h-7.92V423.34H420Z"/><path class="cls-1" d="M571.27,423.34v7.56H514.65V449h54v7.56h-54v20.66h56.62v7.65H500.15V423.34Z"/><path class="cls-1" d="M582.79,484.89v-7.65h50.12c4.31,0,6.15-1.32,6.15-4.4,0-2.9-1.4-4.31-10.28-7.91-43.79-15.3-47.39-17-47.39-27s5.89-14.6,18.72-14.6h48.27v7.56H602.05c-4.31,0-6.16,1.41-6.16,4.4,0,2.73,1.41,4.22,10.29,7.74,43.78,15.3,47.39,17,47.39,27.16s-5.89,14.69-18.73,14.69Z"/><path class="cls-1" d="M681.18,484.89H666.67V423.34h14.51Z"/><path class="cls-1" d="M696.3,484.89v-7.65h50.12c4.3,0,6.15-1.32,6.15-4.4,0-2.9-1.41-4.31-10.29-7.91-43.78-15.3-47.39-17-47.39-27s5.89-14.6,18.73-14.6h48.27v7.56H715.55c-4.3,0-6.15,1.41-6.15,4.4,0,2.73,1.41,4.22,10.29,7.74,43.78,15.3,47.39,17,47.39,27.16s-5.89,14.69-18.73,14.69Z"/><path class="cls-1" d="M282.29,555.73l23-38.06h24.86v58.8H306.65V535.65l-25,40.82H268.18l-25-40.82v40.82H232.23v-58.8h27.13Z"/><path class="cls-1" d="M366.71,577.23c-19.57,0-25.53-7.06-25.53-30.16s6-30.15,25.53-30.15h32.93c19.57,0,25.54,7.05,25.54,30.15s-6,30.16-25.54,30.16ZM394,566.56c5.46,0,7.65-2.35,7.65-8.15V535.73c0-5.79-2.19-8.14-7.65-8.14H372.34c-5.46,0-7.64,2.35-7.64,8.14v22.68c0,5.8,2.18,8.15,7.64,8.15Z"/><path class="cls-1" d="M431.14,517.67h73.92v10.67h-25.2v48.13H456.34V528.34h-25.2Z"/><path class="cls-1" d="M536.65,577.23c-19.58,0-25.54-7.06-25.54-30.16s6-30.15,25.54-30.15h32.92c19.57,0,25.54,7.05,25.54,30.15s-6,30.16-25.54,30.16ZM564,566.56c5.46,0,7.64-2.35,7.64-8.15V535.73c0-5.79-2.18-8.14-7.64-8.14H542.27c-5.46,0-7.64,2.35-7.64,8.14v22.68c0,5.8,2.18,8.15,7.64,8.15Z"/><path class="cls-1" d="M689.86,576.47H660.29l-17.64-22.84h-13.1v22.84H606v-58.8h62.66c10.42,0,15.46,5.13,15.46,18,0,11.68-4.12,17-12.69,17.81Zm-60.31-48.13V543h26c3.87,0,5.13-1.35,5.13-5.29v-4c0-3.94-1.26-5.29-5.13-5.29Z"/><path class="cls-1" d="M695.4,576.47V565.81H742c2.1,0,2.94-.68,2.94-2.1,0-1.77-1.09-2.36-3.86-3.11C699.52,549.26,694,547,694,535.4c0-12.43,6.8-17.73,22.84-17.73h46.29v10.67H720.44c-2.1,0-2.94.67-2.94,1.93,0,1.43,1.09,2.19,3.86,2.94,41.58,11.34,47.12,13.61,47.12,25.54,0,12.43-6.8,17.72-22.84,17.72Z"/></svg>